<?xml version="1.0" encoding="UTF-8" standalone="no"?>
<!DOCTYPE svg PUBLIC "-//W3C//DTD SVG 1.1//EN"
 "http://www.w3.org/Graphics/SVG/1.1/DTD/svg11.dtd">
<!-- Generated by graphviz version 2.47.3 (20210619.1520)
 -->
<!-- Title: dependencies Pages: 1 -->
<svg width="400pt" height="247pt"
 viewBox="0.00 0.00 400.00 246.80" xmlns="http://www.w3.org/2000/svg" xmlns:xlink="http://www.w3.org/1999/xlink">
<g id="graph0" class="graph" transform="scale(1 1) rotate(0) translate(4 242.8)">
<title>dependencies</title>
<polygon fill="white" stroke="transparent" points="-4,4 -4,-242.8 396,-242.8 396,4 -4,4"/>
<text text-anchor="middle" x="196" y="-8.2" font-family="sans-serif" font-size="14.00">dependencies</text>
<g id="clust1" class="cluster">
<title>cluster_BooleDetailModule</title>
<polygon fill="none" stroke="black" stroke-dasharray="1,5" points="8,-32.8 8,-230.8 384,-230.8 384,-32.8 8,-32.8"/>
</g>
<g id="clust4" class="cluster">
<title>cluster_BooleDetailModule_imports</title>
<polygon fill="none" stroke="black" points="188,-40.8 188,-92.8 376,-92.8 376,-40.8 188,-40.8"/>
</g>
<g id="clust2" class="cluster">
<title>cluster_BooleDetailModule_declarations</title>
<polygon fill="none" stroke="black" points="16,-40.8 16,-92.8 180,-92.8 180,-40.8 16,-40.8"/>
</g>
<g id="clust5" class="cluster">
<title>cluster_BooleDetailModule_exports</title>
<polygon fill="none" stroke="black" points="107,-170.8 107,-222.8 275,-222.8 275,-170.8 107,-170.8"/>
</g>
<!-- BooleDetailComponent -->
<g id="node1" class="node">
<title>BooleDetailComponent</title>
<polygon fill="#ffffb3" stroke="black" points="172.48,-84.8 23.52,-84.8 23.52,-48.8 172.48,-48.8 172.48,-84.8"/>
<text text-anchor="middle" x="98" y="-62.6" font-family="Times,serif" font-size="14.00">BooleDetailComponent</text>
</g>
<!-- BooleDetailModule -->
<g id="node2" class="node">
<title>BooleDetailModule</title>
<polygon fill="#8dd3c7" stroke="black" points="254.7,-149.8 251.7,-153.8 230.7,-153.8 227.7,-149.8 127.3,-149.8 127.3,-113.8 254.7,-113.8 254.7,-149.8"/>
<text text-anchor="middle" x="191" y="-127.6" font-family="Times,serif" font-size="14.00">BooleDetailModule</text>
</g>
<!-- BooleDetailComponent&#45;&gt;BooleDetailModule -->
<g id="edge1" class="edge">
<title>BooleDetailComponent&#45;&gt;BooleDetailModule</title>
<path fill="none" stroke="black" d="M149.95,-84.91C149.95,-84.91 149.95,-103.79 149.95,-103.79"/>
<polygon fill="black" stroke="black" points="146.45,-103.79 149.95,-113.79 153.45,-103.79 146.45,-103.79"/>
</g>
<!-- BooleDetailComponent  -->
<g id="node4" class="node">
<title>BooleDetailComponent </title>
<polygon fill="#fb8072" stroke="black" points="267.48,-214.8 114.52,-214.8 114.52,-178.8 267.48,-178.8 267.48,-214.8"/>
<text text-anchor="middle" x="191" y="-192.6" font-family="Times,serif" font-size="14.00">BooleDetailComponent </text>
</g>
<!-- BooleDetailModule&#45;&gt;BooleDetailComponent  -->
<g id="edge3" class="edge">
<title>BooleDetailModule&#45;&gt;BooleDetailComponent </title>
<path fill="none" stroke="black" stroke-dasharray="5,2" d="M191,-149.91C191,-149.91 191,-168.79 191,-168.79"/>
<polygon fill="black" stroke="black" points="187.5,-168.79 191,-178.79 194.5,-168.79 187.5,-168.79"/>
</g>
<!-- BooleDetailRoutingModule -->
<g id="node3" class="node">
<title>BooleDetailRoutingModule</title>
<polygon fill="#8dd3c7" stroke="black" points="368.32,-84.8 365.32,-88.8 344.32,-88.8 341.32,-84.8 195.68,-84.8 195.68,-48.8 368.32,-48.8 368.32,-84.8"/>
<text text-anchor="middle" x="282" y="-62.6" font-family="Times,serif" font-size="14.00">BooleDetailRoutingModule</text>
</g>
<!-- BooleDetailRoutingModule&#45;&gt;BooleDetailModule -->
<g id="edge2" class="edge">
<title>BooleDetailRoutingModule&#45;&gt;BooleDetailModule</title>
<path fill="none" stroke="black" d="M225.22,-84.91C225.22,-84.91 225.22,-103.79 225.22,-103.79"/>
<polygon fill="black" stroke="black" points="221.72,-103.79 225.22,-113.79 228.72,-103.79 221.72,-103.79"/>
</g>
</g>
</svg>
