<?xml version="1.0" encoding="UTF-8" standalone="no"?>
<!DOCTYPE svg PUBLIC "-//W3C//DTD SVG 1.1//EN"
 "http://www.w3.org/Graphics/SVG/1.1/DTD/svg11.dtd">
<!-- Generated by graphviz version 2.47.3 (20210619.1520)
 -->
<!-- Title: dependencies Pages: 1 -->
<svg width="464pt" height="247pt"
 viewBox="0.00 0.00 464.00 246.80" xmlns="http://www.w3.org/2000/svg" xmlns:xlink="http://www.w3.org/1999/xlink">
<g id="graph0" class="graph" transform="scale(1 1) rotate(0) translate(4 242.8)">
<title>dependencies</title>
<polygon fill="white" stroke="transparent" points="-4,4 -4,-242.8 460,-242.8 460,4 -4,4"/>
<text text-anchor="middle" x="228" y="-8.2" font-family="sans-serif" font-size="14.00">dependencies</text>
<g id="clust1" class="cluster">
<title>cluster_PropositionDetailModule</title>
<polygon fill="none" stroke="black" stroke-dasharray="1,5" points="8,-32.8 8,-230.8 448,-230.8 448,-32.8 8,-32.8"/>
</g>
<g id="clust2" class="cluster">
<title>cluster_PropositionDetailModule_declarations</title>
<polygon fill="none" stroke="black" points="244,-40.8 244,-92.8 440,-92.8 440,-40.8 244,-40.8"/>
</g>
<g id="clust4" class="cluster">
<title>cluster_PropositionDetailModule_imports</title>
<polygon fill="none" stroke="black" points="16,-40.8 16,-92.8 236,-92.8 236,-40.8 16,-40.8"/>
</g>
<g id="clust5" class="cluster">
<title>cluster_PropositionDetailModule_exports</title>
<polygon fill="none" stroke="black" points="133,-170.8 133,-222.8 333,-222.8 333,-170.8 133,-170.8"/>
</g>
<!-- PropositionDetailComponent -->
<g id="node1" class="node">
<title>PropositionDetailComponent</title>
<polygon fill="#ffffb3" stroke="black" points="432.1,-84.8 251.9,-84.8 251.9,-48.8 432.1,-48.8 432.1,-84.8"/>
<text text-anchor="middle" x="342" y="-62.6" font-family="Times,serif" font-size="14.00">PropositionDetailComponent</text>
</g>
<!-- PropositionDetailModule -->
<g id="node2" class="node">
<title>PropositionDetailModule</title>
<polygon fill="#8dd3c7" stroke="black" points="312.32,-149.8 309.32,-153.8 288.32,-153.8 285.32,-149.8 153.68,-149.8 153.68,-113.8 312.32,-113.8 312.32,-149.8"/>
<text text-anchor="middle" x="233" y="-127.6" font-family="Times,serif" font-size="14.00">PropositionDetailModule</text>
</g>
<!-- PropositionDetailComponent&#45;&gt;PropositionDetailModule -->
<g id="edge1" class="edge">
<title>PropositionDetailComponent&#45;&gt;PropositionDetailModule</title>
<path fill="none" stroke="black" d="M282.05,-84.91C282.05,-84.91 282.05,-103.79 282.05,-103.79"/>
<polygon fill="black" stroke="black" points="278.55,-103.79 282.05,-113.79 285.55,-103.79 278.55,-103.79"/>
</g>
<!-- PropositionDetailComponent  -->
<g id="node4" class="node">
<title>PropositionDetailComponent </title>
<polygon fill="#fb8072" stroke="black" points="324.6,-214.8 141.4,-214.8 141.4,-178.8 324.6,-178.8 324.6,-214.8"/>
<text text-anchor="middle" x="233" y="-192.6" font-family="Times,serif" font-size="14.00">PropositionDetailComponent </text>
</g>
<!-- PropositionDetailModule&#45;&gt;PropositionDetailComponent  -->
<g id="edge3" class="edge">
<title>PropositionDetailModule&#45;&gt;PropositionDetailComponent </title>
<path fill="none" stroke="black" stroke-dasharray="5,2" d="M233,-149.91C233,-149.91 233,-168.79 233,-168.79"/>
<polygon fill="black" stroke="black" points="229.5,-168.79 233,-178.79 236.5,-168.79 229.5,-168.79"/>
</g>
<!-- PropositionDetailRoutingModule -->
<g id="node3" class="node">
<title>PropositionDetailRoutingModule</title>
<polygon fill="#8dd3c7" stroke="black" points="227.94,-84.8 224.94,-88.8 203.94,-88.8 200.94,-84.8 24.06,-84.8 24.06,-48.8 227.94,-48.8 227.94,-84.8"/>
<text text-anchor="middle" x="126" y="-62.6" font-family="Times,serif" font-size="14.00">PropositionDetailRoutingModule</text>
</g>
<!-- PropositionDetailRoutingModule&#45;&gt;PropositionDetailModule -->
<g id="edge2" class="edge">
<title>PropositionDetailRoutingModule&#45;&gt;PropositionDetailModule</title>
<path fill="none" stroke="black" d="M190.78,-84.91C190.78,-84.91 190.78,-103.79 190.78,-103.79"/>
<polygon fill="black" stroke="black" points="187.28,-103.79 190.78,-113.79 194.28,-103.79 187.28,-103.79"/>
</g>
</g>
</svg>
