<?xml version="1.0" encoding="UTF-8" standalone="no"?>
<!DOCTYPE svg PUBLIC "-//W3C//DTD SVG 1.1//EN"
 "http://www.w3.org/Graphics/SVG/1.1/DTD/svg11.dtd">
<!-- Generated by graphviz version 2.47.3 (20210619.1520)
 -->
<!-- Title: dependencies Pages: 1 -->
<svg width="757pt" height="247pt"
 viewBox="0.00 0.00 757.00 246.80" xmlns="http://www.w3.org/2000/svg" xmlns:xlink="http://www.w3.org/1999/xlink">
<g id="graph0" class="graph" transform="scale(1 1) rotate(0) translate(4 242.8)">
<title>dependencies</title>
<polygon fill="white" stroke="transparent" points="-4,4 -4,-242.8 753,-242.8 753,4 -4,4"/>
<text text-anchor="middle" x="374.5" y="-8.2" font-family="sans-serif" font-size="14.00">dependencies</text>
<g id="clust1" class="cluster">
<title>cluster_AppModule</title>
<polygon fill="none" stroke="black" stroke-dasharray="1,5" points="8,-32.8 8,-230.8 741,-230.8 741,-32.8 8,-32.8"/>
</g>
<g id="clust6" class="cluster">
<title>cluster_AppModule_bootstrap</title>
<polygon fill="none" stroke="black" points="290,-170.8 290,-222.8 414,-222.8 414,-170.8 290,-170.8"/>
</g>
<g id="clust2" class="cluster">
<title>cluster_AppModule_declarations</title>
<polygon fill="none" stroke="black" points="611,-40.8 611,-92.8 733,-92.8 733,-40.8 611,-40.8"/>
</g>
<g id="clust4" class="cluster">
<title>cluster_AppModule_imports</title>
<polygon fill="none" stroke="black" points="16,-40.8 16,-92.8 603,-92.8 603,-40.8 16,-40.8"/>
</g>
<!-- AppComponent -->
<g id="node1" class="node">
<title>AppComponent</title>
<polygon fill="#ffffb3" stroke="black" points="724.94,-84.8 619.06,-84.8 619.06,-48.8 724.94,-48.8 724.94,-84.8"/>
<text text-anchor="middle" x="672" y="-62.6" font-family="Times,serif" font-size="14.00">AppComponent</text>
</g>
<!-- AppModule -->
<g id="node2" class="node">
<title>AppModule</title>
<polygon fill="#8dd3c7" stroke="black" points="393.66,-149.8 390.66,-153.8 369.66,-153.8 366.66,-149.8 310.34,-149.8 310.34,-113.8 393.66,-113.8 393.66,-149.8"/>
<text text-anchor="middle" x="352" y="-127.6" font-family="Times,serif" font-size="14.00">AppModule</text>
</g>
<!-- AppComponent&#45;&gt;AppModule -->
<g id="edge1" class="edge">
<title>AppComponent&#45;&gt;AppModule</title>
<path fill="none" stroke="black" d="M672,-85.08C672,-106.12 672,-137.8 672,-137.8 672,-137.8 403.83,-137.8 403.83,-137.8"/>
<polygon fill="black" stroke="black" points="403.83,-134.3 393.83,-137.8 403.83,-141.3 403.83,-134.3"/>
</g>
<!-- AppComponent  -->
<g id="node7" class="node">
<title>AppComponent </title>
<polygon fill="#80b1d3" stroke="black" points="406.44,-214.8 297.56,-214.8 297.56,-178.8 406.44,-178.8 406.44,-214.8"/>
<text text-anchor="middle" x="352" y="-192.6" font-family="Times,serif" font-size="14.00">AppComponent </text>
</g>
<!-- AppModule&#45;&gt;AppComponent  -->
<g id="edge6" class="edge">
<title>AppModule&#45;&gt;AppComponent </title>
<path fill="none" stroke="black" stroke-dasharray="1,5" d="M352,-149.91C352,-149.91 352,-168.79 352,-168.79"/>
<polygon fill="black" stroke="black" points="348.5,-168.79 352,-178.79 355.5,-168.79 348.5,-168.79"/>
</g>
<!-- AppRoutingModule -->
<g id="node3" class="node">
<title>AppRoutingModule</title>
<polygon fill="#8dd3c7" stroke="black" points="595.27,-84.8 592.27,-88.8 571.27,-88.8 568.27,-84.8 466.73,-84.8 466.73,-48.8 595.27,-48.8 595.27,-84.8"/>
<text text-anchor="middle" x="531" y="-62.6" font-family="Times,serif" font-size="14.00">AppRoutingModule</text>
</g>
<!-- AppRoutingModule&#45;&gt;AppModule -->
<g id="edge2" class="edge">
<title>AppRoutingModule&#45;&gt;AppModule</title>
<path fill="none" stroke="black" d="M531,-84.82C531,-102.17 531,-125.8 531,-125.8 531,-125.8 403.97,-125.8 403.97,-125.8"/>
<polygon fill="black" stroke="black" points="403.97,-122.3 393.97,-125.8 403.97,-129.3 403.97,-122.3"/>
</g>
<!-- CalculatorErrorHandlerModule -->
<g id="node4" class="node">
<title>CalculatorErrorHandlerModule</title>
<polygon fill="#8dd3c7" stroke="black" points="448.48,-84.8 445.48,-88.8 424.48,-88.8 421.48,-84.8 255.52,-84.8 255.52,-48.8 448.48,-48.8 448.48,-84.8"/>
<text text-anchor="middle" x="352" y="-62.6" font-family="Times,serif" font-size="14.00">CalculatorErrorHandlerModule</text>
</g>
<!-- CalculatorErrorHandlerModule&#45;&gt;AppModule -->
<g id="edge3" class="edge">
<title>CalculatorErrorHandlerModule&#45;&gt;AppModule</title>
<path fill="none" stroke="black" d="M352,-84.91C352,-84.91 352,-103.79 352,-103.79"/>
<polygon fill="black" stroke="black" points="348.5,-103.79 352,-113.79 355.5,-103.79 348.5,-103.79"/>
</g>
<!-- FooterModule -->
<g id="node5" class="node">
<title>FooterModule</title>
<polygon fill="#8dd3c7" stroke="black" points="238.1,-84.8 235.1,-88.8 214.1,-88.8 211.1,-84.8 141.9,-84.8 141.9,-48.8 238.1,-48.8 238.1,-84.8"/>
<text text-anchor="middle" x="190" y="-62.6" font-family="Times,serif" font-size="14.00">FooterModule</text>
</g>
<!-- FooterModule&#45;&gt;AppModule -->
<g id="edge4" class="edge">
<title>FooterModule&#45;&gt;AppModule</title>
<path fill="none" stroke="black" d="M190,-84.82C190,-102.17 190,-125.8 190,-125.8 190,-125.8 300.28,-125.8 300.28,-125.8"/>
<polygon fill="black" stroke="black" points="300.28,-129.3 310.28,-125.8 300.28,-122.3 300.28,-129.3"/>
</g>
<!-- HeaderModule -->
<g id="node6" class="node">
<title>HeaderModule</title>
<polygon fill="#8dd3c7" stroke="black" points="123.96,-84.8 120.96,-88.8 99.96,-88.8 96.96,-84.8 24.04,-84.8 24.04,-48.8 123.96,-48.8 123.96,-84.8"/>
<text text-anchor="middle" x="74" y="-62.6" font-family="Times,serif" font-size="14.00">HeaderModule</text>
</g>
<!-- HeaderModule&#45;&gt;AppModule -->
<g id="edge5" class="edge">
<title>HeaderModule&#45;&gt;AppModule</title>
<path fill="none" stroke="black" d="M74,-85.08C74,-106.12 74,-137.8 74,-137.8 74,-137.8 300.08,-137.8 300.08,-137.8"/>
<polygon fill="black" stroke="black" points="300.08,-141.3 310.08,-137.8 300.08,-134.3 300.08,-141.3"/>
</g>
</g>
</svg>
