<?xml version="1.0" encoding="UTF-8" standalone="no"?>
<!DOCTYPE svg PUBLIC "-//W3C//DTD SVG 1.1//EN"
 "http://www.w3.org/Graphics/SVG/1.1/DTD/svg11.dtd">
<!-- Generated by graphviz version 2.47.3 (20210619.1520)
 -->
<!-- Title: dependencies Pages: 1 -->
<svg width="748pt" height="247pt"
 viewBox="0.00 0.00 748.00 246.80" xmlns="http://www.w3.org/2000/svg" xmlns:xlink="http://www.w3.org/1999/xlink">
<g id="graph0" class="graph" transform="scale(1 1) rotate(0) translate(4 242.8)">
<title>dependencies</title>
<polygon fill="white" stroke="transparent" points="-4,4 -4,-242.8 744,-242.8 744,4 -4,4"/>
<text text-anchor="middle" x="370" y="-8.2" font-family="sans-serif" font-size="14.00">dependencies</text>
<g id="clust1" class="cluster">
<title>cluster_ResultModule</title>
<polygon fill="none" stroke="black" stroke-dasharray="1,5" points="8,-32.8 8,-230.8 732,-230.8 732,-32.8 8,-32.8"/>
</g>
<g id="clust4" class="cluster">
<title>cluster_ResultModule_imports</title>
<polygon fill="none" stroke="black" points="158,-40.8 158,-92.8 724,-92.8 724,-40.8 158,-40.8"/>
</g>
<g id="clust2" class="cluster">
<title>cluster_ResultModule_declarations</title>
<polygon fill="none" stroke="black" points="16,-40.8 16,-92.8 150,-92.8 150,-40.8 16,-40.8"/>
</g>
<g id="clust5" class="cluster">
<title>cluster_ResultModule_exports</title>
<polygon fill="none" stroke="black" points="278,-170.8 278,-222.8 414,-222.8 414,-170.8 278,-170.8"/>
</g>
<!-- ResultComponent -->
<g id="node1" class="node">
<title>ResultComponent</title>
<polygon fill="#ffffb3" stroke="black" points="141.61,-84.8 24.39,-84.8 24.39,-48.8 141.61,-48.8 141.61,-84.8"/>
<text text-anchor="middle" x="83" y="-62.6" font-family="Times,serif" font-size="14.00">ResultComponent</text>
</g>
<!-- ResultModule -->
<g id="node2" class="node">
<title>ResultModule</title>
<polygon fill="#8dd3c7" stroke="black" points="393.83,-149.8 390.83,-153.8 369.83,-153.8 366.83,-149.8 298.17,-149.8 298.17,-113.8 393.83,-113.8 393.83,-149.8"/>
<text text-anchor="middle" x="346" y="-127.6" font-family="Times,serif" font-size="14.00">ResultModule</text>
</g>
<!-- ResultComponent&#45;&gt;ResultModule -->
<g id="edge1" class="edge">
<title>ResultComponent&#45;&gt;ResultModule</title>
<path fill="none" stroke="black" d="M83,-85.08C83,-106.12 83,-137.8 83,-137.8 83,-137.8 288.07,-137.8 288.07,-137.8"/>
<polygon fill="black" stroke="black" points="288.07,-141.3 298.07,-137.8 288.07,-134.3 288.07,-141.3"/>
</g>
<!-- ResultComponent  -->
<g id="node7" class="node">
<title>ResultComponent </title>
<polygon fill="#fb8072" stroke="black" points="406.11,-214.8 285.89,-214.8 285.89,-178.8 406.11,-178.8 406.11,-214.8"/>
<text text-anchor="middle" x="346" y="-192.6" font-family="Times,serif" font-size="14.00">ResultComponent </text>
</g>
<!-- ResultModule&#45;&gt;ResultComponent  -->
<g id="edge6" class="edge">
<title>ResultModule&#45;&gt;ResultComponent </title>
<path fill="none" stroke="black" stroke-dasharray="5,2" d="M346,-149.91C346,-149.91 346,-168.79 346,-168.79"/>
<polygon fill="black" stroke="black" points="342.5,-168.79 346,-178.79 349.5,-168.79 342.5,-168.79"/>
</g>
<!-- BooleInfoModule -->
<g id="node3" class="node">
<title>BooleInfoModule</title>
<polygon fill="#8dd3c7" stroke="black" points="716.31,-84.8 713.31,-88.8 692.31,-88.8 689.31,-84.8 599.69,-84.8 599.69,-48.8 716.31,-48.8 716.31,-84.8"/>
<text text-anchor="middle" x="658" y="-62.6" font-family="Times,serif" font-size="14.00">BooleInfoModule</text>
</g>
<!-- BooleInfoModule&#45;&gt;ResultModule -->
<g id="edge2" class="edge">
<title>BooleInfoModule&#45;&gt;ResultModule</title>
<path fill="none" stroke="black" d="M658,-85.08C658,-106.12 658,-137.8 658,-137.8 658,-137.8 403.73,-137.8 403.73,-137.8"/>
<polygon fill="black" stroke="black" points="403.73,-134.3 393.73,-137.8 403.73,-141.3 403.73,-134.3"/>
</g>
<!-- PropositionInfoModule -->
<g id="node4" class="node">
<title>PropositionInfoModule</title>
<polygon fill="#8dd3c7" stroke="black" points="581.93,-84.8 578.93,-88.8 557.93,-88.8 554.93,-84.8 434.07,-84.8 434.07,-48.8 581.93,-48.8 581.93,-84.8"/>
<text text-anchor="middle" x="508" y="-62.6" font-family="Times,serif" font-size="14.00">PropositionInfoModule</text>
</g>
<!-- PropositionInfoModule&#45;&gt;ResultModule -->
<g id="edge3" class="edge">
<title>PropositionInfoModule&#45;&gt;ResultModule</title>
<path fill="none" stroke="black" d="M508,-84.82C508,-102.17 508,-125.8 508,-125.8 508,-125.8 403.73,-125.8 403.73,-125.8"/>
<polygon fill="black" stroke="black" points="403.73,-122.3 393.73,-125.8 403.73,-129.3 403.73,-122.3"/>
</g>
<!-- ResultRoutingModule -->
<g id="node5" class="node">
<title>ResultRoutingModule</title>
<polygon fill="#8dd3c7" stroke="black" points="416.45,-84.8 413.45,-88.8 392.45,-88.8 389.45,-84.8 275.55,-84.8 275.55,-48.8 416.45,-48.8 416.45,-84.8"/>
<text text-anchor="middle" x="346" y="-62.6" font-family="Times,serif" font-size="14.00">ResultRoutingModule</text>
</g>
<!-- ResultRoutingModule&#45;&gt;ResultModule -->
<g id="edge4" class="edge">
<title>ResultRoutingModule&#45;&gt;ResultModule</title>
<path fill="none" stroke="black" d="M346,-84.91C346,-84.91 346,-103.79 346,-103.79"/>
<polygon fill="black" stroke="black" points="342.5,-103.79 346,-113.79 349.5,-103.79 342.5,-103.79"/>
</g>
<!-- TableModule -->
<g id="node6" class="node">
<title>TableModule</title>
<polygon fill="#8dd3c7" stroke="black" points="257.92,-84.8 254.92,-88.8 233.92,-88.8 230.92,-84.8 166.08,-84.8 166.08,-48.8 257.92,-48.8 257.92,-84.8"/>
<text text-anchor="middle" x="212" y="-62.6" font-family="Times,serif" font-size="14.00">TableModule</text>
</g>
<!-- TableModule&#45;&gt;ResultModule -->
<g id="edge5" class="edge">
<title>TableModule&#45;&gt;ResultModule</title>
<path fill="none" stroke="black" d="M212,-84.82C212,-102.17 212,-125.8 212,-125.8 212,-125.8 288,-125.8 288,-125.8"/>
<polygon fill="black" stroke="black" points="288,-129.3 298,-125.8 288,-122.3 288,-129.3"/>
</g>
</g>
</svg>
