<?xml version="1.0" encoding="UTF-8" standalone="no"?>
<!DOCTYPE svg PUBLIC "-//W3C//DTD SVG 1.1//EN"
 "http://www.w3.org/Graphics/SVG/1.1/DTD/svg11.dtd">
<!-- Generated by graphviz version 2.47.3 (20210619.1520)
 -->
<!-- Title: dependencies Pages: 1 -->
<svg width="3827pt" height="329pt"
 viewBox="0.00 0.00 3827.00 328.80" xmlns="http://www.w3.org/2000/svg" xmlns:xlink="http://www.w3.org/1999/xlink">
<g id="graph0" class="graph" transform="scale(1 1) rotate(0) translate(4 324.8)">
<title>dependencies</title>
<polygon fill="white" stroke="transparent" points="-4,4 -4,-324.8 3823,-324.8 3823,4 -4,4"/>
<text text-anchor="middle" x="1909.5" y="-8.2" font-family="sans-serif" font-size="14.00">dependencies</text>
<g id="clust1" class="cluster">
<title>cluster_AppModule</title>
<polygon fill="none" stroke="black" stroke-dasharray="1,5" points="8,-32.8 8,-244.8 741,-244.8 741,-32.8 8,-32.8"/>
</g>
<g id="clust2" class="cluster">
<title>cluster_AppModule_declarations</title>
<polygon fill="none" stroke="black" points="16,-40.8 16,-92.8 138,-92.8 138,-40.8 16,-40.8"/>
</g>
<g id="clust4" class="cluster">
<title>cluster_AppModule_imports</title>
<polygon fill="none" stroke="black" points="146,-40.8 146,-92.8 733,-92.8 733,-40.8 146,-40.8"/>
</g>
<g id="clust6" class="cluster">
<title>cluster_AppModule_bootstrap</title>
<polygon fill="none" stroke="black" points="367,-184.8 367,-236.8 491,-236.8 491,-184.8 367,-184.8"/>
</g>
<g id="clust14" class="cluster">
<title>cluster_BooleDetailModule</title>
<polygon fill="none" stroke="black" stroke-dasharray="1,5" points="1365,-32.8 1365,-244.8 1741,-244.8 1741,-32.8 1365,-32.8"/>
</g>
<g id="clust15" class="cluster">
<title>cluster_BooleDetailModule_declarations</title>
<polygon fill="none" stroke="black" points="1569,-40.8 1569,-92.8 1733,-92.8 1733,-40.8 1569,-40.8"/>
</g>
<g id="clust17" class="cluster">
<title>cluster_BooleDetailModule_imports</title>
<polygon fill="none" stroke="black" points="1373,-40.8 1373,-92.8 1561,-92.8 1561,-40.8 1373,-40.8"/>
</g>
<g id="clust18" class="cluster">
<title>cluster_BooleDetailModule_exports</title>
<polygon fill="none" stroke="black" points="1474,-184.8 1474,-236.8 1642,-236.8 1642,-184.8 1474,-184.8"/>
</g>
<g id="clust27" class="cluster">
<title>cluster_BooleInfoModule</title>
<polygon fill="none" stroke="black" stroke-dasharray="1,5" points="1749,-32.8 1749,-244.8 1923,-244.8 1923,-32.8 1749,-32.8"/>
</g>
<g id="clust28" class="cluster">
<title>cluster_BooleInfoModule_declarations</title>
<polygon fill="none" stroke="black" points="1760,-40.8 1760,-92.8 1914,-92.8 1914,-40.8 1760,-40.8"/>
</g>
<g id="clust31" class="cluster">
<title>cluster_BooleInfoModule_exports</title>
<polygon fill="none" stroke="black" points="1757,-184.8 1757,-236.8 1915,-236.8 1915,-184.8 1757,-184.8"/>
</g>
<g id="clust40" class="cluster">
<title>cluster_CalculatorModule</title>
<polygon fill="none" stroke="black" stroke-dasharray="1,5" points="2869,-32.8 2869,-244.8 3045,-244.8 3045,-32.8 2869,-32.8"/>
</g>
<g id="clust41" class="cluster">
<title>cluster_CalculatorModule_declarations</title>
<polygon fill="none" stroke="black" points="2880,-40.8 2880,-92.8 3036,-92.8 3036,-40.8 2880,-40.8"/>
</g>
<g id="clust44" class="cluster">
<title>cluster_CalculatorModule_exports</title>
<polygon fill="none" stroke="black" points="2877,-184.8 2877,-236.8 3037,-236.8 3037,-184.8 2877,-184.8"/>
</g>
<g id="clust47" class="cluster">
<title>cluster_FooterModule</title>
<polygon fill="none" stroke="black" stroke-dasharray="1,5" points="749,-100.8 749,-168.8 1045,-168.8 1045,-100.8 749,-100.8"/>
</g>
<g id="clust48" class="cluster">
<title>cluster_FooterModule_declarations</title>
<polygon fill="none" stroke="black" points="903,-108.8 903,-160.8 1037,-160.8 1037,-108.8 903,-108.8"/>
</g>
<g id="clust51" class="cluster">
<title>cluster_FooterModule_exports</title>
<polygon fill="none" stroke="black" points="757,-108.8 757,-160.8 895,-160.8 895,-108.8 757,-108.8"/>
</g>
<g id="clust54" class="cluster">
<title>cluster_HeaderModule</title>
<polygon fill="none" stroke="black" stroke-dasharray="1,5" points="1053,-100.8 1053,-168.8 1357,-168.8 1357,-100.8 1053,-100.8"/>
</g>
<g id="clust55" class="cluster">
<title>cluster_HeaderModule_declarations</title>
<polygon fill="none" stroke="black" points="1211,-108.8 1211,-160.8 1349,-160.8 1349,-108.8 1211,-108.8"/>
</g>
<g id="clust58" class="cluster">
<title>cluster_HeaderModule_exports</title>
<polygon fill="none" stroke="black" points="1061,-108.8 1061,-160.8 1203,-160.8 1203,-108.8 1061,-108.8"/>
</g>
<g id="clust61" class="cluster">
<title>cluster_HomeModule</title>
<polygon fill="none" stroke="black" stroke-dasharray="1,5" points="3053,-100.8 3053,-312.8 3363,-312.8 3363,-100.8 3053,-100.8"/>
</g>
<g id="clust62" class="cluster">
<title>cluster_HomeModule_declarations</title>
<polygon fill="none" stroke="black" points="3223,-108.8 3223,-160.8 3355,-160.8 3355,-108.8 3223,-108.8"/>
</g>
<g id="clust64" class="cluster">
<title>cluster_HomeModule_imports</title>
<polygon fill="none" stroke="black" points="3061,-108.8 3061,-160.8 3215,-160.8 3215,-108.8 3061,-108.8"/>
</g>
<g id="clust65" class="cluster">
<title>cluster_HomeModule_exports</title>
<polygon fill="none" stroke="black" points="3070,-252.8 3070,-304.8 3206,-304.8 3206,-252.8 3070,-252.8"/>
</g>
<g id="clust74" class="cluster">
<title>cluster_PropositionDetailModule</title>
<polygon fill="none" stroke="black" stroke-dasharray="1,5" points="3371,-32.8 3371,-244.8 3811,-244.8 3811,-32.8 3371,-32.8"/>
</g>
<g id="clust75" class="cluster">
<title>cluster_PropositionDetailModule_declarations</title>
<polygon fill="none" stroke="black" points="3607,-40.8 3607,-92.8 3803,-92.8 3803,-40.8 3607,-40.8"/>
</g>
<g id="clust77" class="cluster">
<title>cluster_PropositionDetailModule_imports</title>
<polygon fill="none" stroke="black" points="3379,-40.8 3379,-92.8 3599,-92.8 3599,-40.8 3379,-40.8"/>
</g>
<g id="clust78" class="cluster">
<title>cluster_PropositionDetailModule_exports</title>
<polygon fill="none" stroke="black" points="3496,-184.8 3496,-236.8 3696,-236.8 3696,-184.8 3496,-184.8"/>
</g>
<g id="clust87" class="cluster">
<title>cluster_PropositionInfoModule</title>
<polygon fill="none" stroke="black" stroke-dasharray="1,5" points="2657,-32.8 2657,-244.8 2861,-244.8 2861,-32.8 2657,-32.8"/>
</g>
<g id="clust88" class="cluster">
<title>cluster_PropositionInfoModule_declarations</title>
<polygon fill="none" stroke="black" points="2665,-40.8 2665,-92.8 2851,-92.8 2851,-40.8 2665,-40.8"/>
</g>
<g id="clust91" class="cluster">
<title>cluster_PropositionInfoModule_exports</title>
<polygon fill="none" stroke="black" points="2665,-184.8 2665,-236.8 2853,-236.8 2853,-184.8 2665,-184.8"/>
</g>
<g id="clust94" class="cluster">
<title>cluster_ResultModule</title>
<polygon fill="none" stroke="black" stroke-dasharray="1,5" points="1931,-100.8 1931,-312.8 2355,-312.8 2355,-100.8 1931,-100.8"/>
</g>
<g id="clust95" class="cluster">
<title>cluster_ResultModule_declarations</title>
<polygon fill="none" stroke="black" points="1939,-108.8 1939,-160.8 2073,-160.8 2073,-108.8 1939,-108.8"/>
</g>
<g id="clust97" class="cluster">
<title>cluster_ResultModule_imports</title>
<polygon fill="none" stroke="black" points="2081,-108.8 2081,-160.8 2347,-160.8 2347,-108.8 2081,-108.8"/>
</g>
<g id="clust98" class="cluster">
<title>cluster_ResultModule_exports</title>
<polygon fill="none" stroke="black" points="2091,-252.8 2091,-304.8 2227,-304.8 2227,-252.8 2091,-252.8"/>
</g>
<g id="clust107" class="cluster">
<title>cluster_TableModule</title>
<polygon fill="none" stroke="black" stroke-dasharray="1,5" points="2363,-176.8 2363,-244.8 2649,-244.8 2649,-176.8 2363,-176.8"/>
</g>
<g id="clust108" class="cluster">
<title>cluster_TableModule_declarations</title>
<polygon fill="none" stroke="black" points="2511,-184.8 2511,-236.8 2641,-236.8 2641,-184.8 2511,-184.8"/>
</g>
<g id="clust111" class="cluster">
<title>cluster_TableModule_exports</title>
<polygon fill="none" stroke="black" points="2371,-184.8 2371,-236.8 2503,-236.8 2503,-184.8 2371,-184.8"/>
</g>
<!-- AppComponent -->
<g id="node1" class="node">
<title>AppComponent</title>
<polygon fill="#ffffb3" stroke="black" points="129.94,-84.8 24.06,-84.8 24.06,-48.8 129.94,-48.8 129.94,-84.8"/>
<text text-anchor="middle" x="77" y="-62.6" font-family="Times,serif" font-size="14.00">AppComponent</text>
</g>
<!-- AppModule -->
<g id="node2" class="node">
<title>AppModule</title>
<polygon fill="#8dd3c7" stroke="black" points="470.66,-152.8 467.66,-156.8 446.66,-156.8 443.66,-152.8 387.34,-152.8 387.34,-116.8 470.66,-116.8 470.66,-152.8"/>
<text text-anchor="middle" x="429" y="-130.6" font-family="Times,serif" font-size="14.00">AppModule</text>
</g>
<!-- AppComponent&#45;&gt;AppModule -->
<g id="edge1" class="edge">
<title>AppComponent&#45;&gt;AppModule</title>
<path fill="none" stroke="black" d="M77,-85.09C77,-107.01 77,-140.8 77,-140.8 77,-140.8 377.24,-140.8 377.24,-140.8"/>
<polygon fill="black" stroke="black" points="377.24,-144.3 387.24,-140.8 377.24,-137.3 377.24,-144.3"/>
</g>
<!-- AppComponent  -->
<g id="node7" class="node">
<title>AppComponent </title>
<polygon fill="#80b1d3" stroke="black" points="483.44,-228.8 374.56,-228.8 374.56,-192.8 483.44,-192.8 483.44,-228.8"/>
<text text-anchor="middle" x="429" y="-206.6" font-family="Times,serif" font-size="14.00">AppComponent </text>
</g>
<!-- AppModule&#45;&gt;AppComponent  -->
<g id="edge6" class="edge">
<title>AppModule&#45;&gt;AppComponent </title>
<path fill="none" stroke="black" stroke-dasharray="1,5" d="M429,-152.81C429,-152.81 429,-182.65 429,-182.65"/>
<polygon fill="black" stroke="black" points="425.5,-182.65 429,-192.65 432.5,-182.65 425.5,-182.65"/>
</g>
<!-- AppRoutingModule -->
<g id="node3" class="node">
<title>AppRoutingModule</title>
<polygon fill="#8dd3c7" stroke="black" points="493.27,-84.8 490.27,-88.8 469.27,-88.8 466.27,-84.8 364.73,-84.8 364.73,-48.8 493.27,-48.8 493.27,-84.8"/>
<text text-anchor="middle" x="429" y="-62.6" font-family="Times,serif" font-size="14.00">AppRoutingModule</text>
</g>
<!-- AppRoutingModule&#45;&gt;AppModule -->
<g id="edge2" class="edge">
<title>AppRoutingModule&#45;&gt;AppModule</title>
<path fill="none" stroke="black" d="M429,-85.02C429,-85.02 429,-106.53 429,-106.53"/>
<polygon fill="black" stroke="black" points="425.5,-106.53 429,-116.53 432.5,-106.53 425.5,-106.53"/>
</g>
<!-- CalculatorErrorHandlerModule -->
<g id="node4" class="node">
<title>CalculatorErrorHandlerModule</title>
<polygon fill="#8dd3c7" stroke="black" points="346.48,-84.8 343.48,-88.8 322.48,-88.8 319.48,-84.8 153.52,-84.8 153.52,-48.8 346.48,-48.8 346.48,-84.8"/>
<text text-anchor="middle" x="250" y="-62.6" font-family="Times,serif" font-size="14.00">CalculatorErrorHandlerModule</text>
</g>
<!-- CalculatorErrorHandlerModule&#45;&gt;AppModule -->
<g id="edge3" class="edge">
<title>CalculatorErrorHandlerModule&#45;&gt;AppModule</title>
<path fill="none" stroke="black" d="M250,-85.07C250,-103.36 250,-128.8 250,-128.8 250,-128.8 377.03,-128.8 377.03,-128.8"/>
<polygon fill="black" stroke="black" points="377.03,-132.3 387.03,-128.8 377.03,-125.3 377.03,-132.3"/>
</g>
<!-- FooterModule -->
<g id="node5" class="node">
<title>FooterModule</title>
<polygon fill="#8dd3c7" stroke="black" points="607.1,-84.8 604.1,-88.8 583.1,-88.8 580.1,-84.8 510.9,-84.8 510.9,-48.8 607.1,-48.8 607.1,-84.8"/>
<text text-anchor="middle" x="559" y="-62.6" font-family="Times,serif" font-size="14.00">FooterModule</text>
</g>
<!-- FooterModule&#45;&gt;AppModule -->
<g id="edge4" class="edge">
<title>FooterModule&#45;&gt;AppModule</title>
<path fill="none" stroke="black" d="M559,-85.02C559,-105.17 559,-134.8 559,-134.8 559,-134.8 480.85,-134.8 480.85,-134.8"/>
<polygon fill="black" stroke="black" points="480.85,-131.3 470.85,-134.8 480.85,-138.3 480.85,-131.3"/>
</g>
<!-- FooterComponent  -->
<g id="node19" class="node">
<title>FooterComponent </title>
<polygon fill="#fb8072" stroke="black" points="886.88,-152.8 765.12,-152.8 765.12,-116.8 886.88,-116.8 886.88,-152.8"/>
<text text-anchor="middle" x="826" y="-130.6" font-family="Times,serif" font-size="14.00">FooterComponent </text>
</g>
<!-- FooterModule&#45;&gt;FooterComponent  -->
<g id="edge15" class="edge">
<title>FooterModule&#45;&gt;FooterComponent </title>
<path fill="none" stroke="black" stroke-dasharray="5,2" d="M583.02,-84.82C583.02,-102.17 583.02,-125.8 583.02,-125.8 583.02,-125.8 755,-125.8 755,-125.8"/>
<polygon fill="black" stroke="black" points="755,-129.3 765,-125.8 755,-122.3 755,-129.3"/>
</g>
<!-- HeaderModule -->
<g id="node6" class="node">
<title>HeaderModule</title>
<polygon fill="#8dd3c7" stroke="black" points="724.96,-84.8 721.96,-88.8 700.96,-88.8 697.96,-84.8 625.04,-84.8 625.04,-48.8 724.96,-48.8 724.96,-84.8"/>
<text text-anchor="middle" x="675" y="-62.6" font-family="Times,serif" font-size="14.00">HeaderModule</text>
</g>
<!-- HeaderModule&#45;&gt;AppModule -->
<g id="edge5" class="edge">
<title>HeaderModule&#45;&gt;AppModule</title>
<path fill="none" stroke="black" d="M675,-85.05C675,-107.82 675,-143.8 675,-143.8 675,-143.8 480.73,-143.8 480.73,-143.8"/>
<polygon fill="black" stroke="black" points="480.73,-140.3 470.73,-143.8 480.73,-147.3 480.73,-140.3"/>
</g>
<!-- HeaderComponent  -->
<g id="node21" class="node">
<title>HeaderComponent </title>
<polygon fill="#fb8072" stroke="black" points="1194.74,-152.8 1069.26,-152.8 1069.26,-116.8 1194.74,-116.8 1194.74,-152.8"/>
<text text-anchor="middle" x="1132" y="-130.6" font-family="Times,serif" font-size="14.00">HeaderComponent </text>
</g>
<!-- HeaderModule&#45;&gt;HeaderComponent  -->
<g id="edge17" class="edge">
<title>HeaderModule&#45;&gt;HeaderComponent </title>
<path fill="none" stroke="black" stroke-dasharray="5,2" d="M725.21,-72.8C843.93,-72.8 1132,-72.8 1132,-72.8 1132,-72.8 1132,-106.53 1132,-106.53"/>
<polygon fill="black" stroke="black" points="1128.5,-106.53 1132,-116.53 1135.5,-106.53 1128.5,-106.53"/>
</g>
<!-- BooleDetailComponent -->
<g id="node8" class="node">
<title>BooleDetailComponent</title>
<polygon fill="#ffffb3" stroke="black" points="1725.48,-84.8 1576.52,-84.8 1576.52,-48.8 1725.48,-48.8 1725.48,-84.8"/>
<text text-anchor="middle" x="1651" y="-62.6" font-family="Times,serif" font-size="14.00">BooleDetailComponent</text>
</g>
<!-- BooleDetailModule -->
<g id="node9" class="node">
<title>BooleDetailModule</title>
<polygon fill="#8dd3c7" stroke="black" points="1621.7,-152.8 1618.7,-156.8 1597.7,-156.8 1594.7,-152.8 1494.3,-152.8 1494.3,-116.8 1621.7,-116.8 1621.7,-152.8"/>
<text text-anchor="middle" x="1558" y="-130.6" font-family="Times,serif" font-size="14.00">BooleDetailModule</text>
</g>
<!-- BooleDetailComponent&#45;&gt;BooleDetailModule -->
<g id="edge7" class="edge">
<title>BooleDetailComponent&#45;&gt;BooleDetailModule</title>
<path fill="none" stroke="black" d="M1599.05,-85.02C1599.05,-85.02 1599.05,-106.53 1599.05,-106.53"/>
<polygon fill="black" stroke="black" points="1595.55,-106.53 1599.05,-116.53 1602.55,-106.53 1595.55,-106.53"/>
</g>
<!-- BooleDetailComponent  -->
<g id="node11" class="node">
<title>BooleDetailComponent </title>
<polygon fill="#fb8072" stroke="black" points="1634.48,-228.8 1481.52,-228.8 1481.52,-192.8 1634.48,-192.8 1634.48,-228.8"/>
<text text-anchor="middle" x="1558" y="-206.6" font-family="Times,serif" font-size="14.00">BooleDetailComponent </text>
</g>
<!-- BooleDetailModule&#45;&gt;BooleDetailComponent  -->
<g id="edge9" class="edge">
<title>BooleDetailModule&#45;&gt;BooleDetailComponent </title>
<path fill="none" stroke="black" stroke-dasharray="5,2" d="M1558,-152.81C1558,-152.81 1558,-182.65 1558,-182.65"/>
<polygon fill="black" stroke="black" points="1554.5,-182.65 1558,-192.65 1561.5,-182.65 1554.5,-182.65"/>
</g>
<!-- BooleDetailRoutingModule -->
<g id="node10" class="node">
<title>BooleDetailRoutingModule</title>
<polygon fill="#8dd3c7" stroke="black" points="1553.32,-84.8 1550.32,-88.8 1529.32,-88.8 1526.32,-84.8 1380.68,-84.8 1380.68,-48.8 1553.32,-48.8 1553.32,-84.8"/>
<text text-anchor="middle" x="1467" y="-62.6" font-family="Times,serif" font-size="14.00">BooleDetailRoutingModule</text>
</g>
<!-- BooleDetailRoutingModule&#45;&gt;BooleDetailModule -->
<g id="edge8" class="edge">
<title>BooleDetailRoutingModule&#45;&gt;BooleDetailModule</title>
<path fill="none" stroke="black" d="M1523.78,-85.02C1523.78,-85.02 1523.78,-106.53 1523.78,-106.53"/>
<polygon fill="black" stroke="black" points="1520.28,-106.53 1523.78,-116.53 1527.28,-106.53 1520.28,-106.53"/>
</g>
<!-- BooleInfoComponent -->
<g id="node12" class="node">
<title>BooleInfoComponent</title>
<polygon fill="#ffffb3" stroke="black" points="1906.1,-84.8 1767.9,-84.8 1767.9,-48.8 1906.1,-48.8 1906.1,-84.8"/>
<text text-anchor="middle" x="1837" y="-62.6" font-family="Times,serif" font-size="14.00">BooleInfoComponent</text>
</g>
<!-- BooleInfoModule -->
<g id="node13" class="node">
<title>BooleInfoModule</title>
<polygon fill="#8dd3c7" stroke="black" points="1895.31,-152.8 1892.31,-156.8 1871.31,-156.8 1868.31,-152.8 1778.69,-152.8 1778.69,-116.8 1895.31,-116.8 1895.31,-152.8"/>
<text text-anchor="middle" x="1837" y="-130.6" font-family="Times,serif" font-size="14.00">BooleInfoModule</text>
</g>
<!-- BooleInfoComponent&#45;&gt;BooleInfoModule -->
<g id="edge10" class="edge">
<title>BooleInfoComponent&#45;&gt;BooleInfoModule</title>
<path fill="none" stroke="black" d="M1837,-85.02C1837,-85.02 1837,-106.53 1837,-106.53"/>
<polygon fill="black" stroke="black" points="1833.5,-106.53 1837,-116.53 1840.5,-106.53 1833.5,-106.53"/>
</g>
<!-- BooleInfoComponent  -->
<g id="node14" class="node">
<title>BooleInfoComponent </title>
<polygon fill="#fb8072" stroke="black" points="1906.6,-228.8 1765.4,-228.8 1765.4,-192.8 1906.6,-192.8 1906.6,-228.8"/>
<text text-anchor="middle" x="1836" y="-206.6" font-family="Times,serif" font-size="14.00">BooleInfoComponent </text>
</g>
<!-- BooleInfoModule&#45;&gt;BooleInfoComponent  -->
<g id="edge11" class="edge">
<title>BooleInfoModule&#45;&gt;BooleInfoComponent </title>
<path fill="none" stroke="black" stroke-dasharray="5,2" d="M1837,-152.81C1837,-152.81 1837,-182.65 1837,-182.65"/>
<polygon fill="black" stroke="black" points="1833.5,-182.65 1837,-192.65 1840.5,-182.65 1833.5,-182.65"/>
</g>
<!-- ResultModule -->
<g id="node34" class="node">
<title>ResultModule</title>
<polygon fill="#8dd3c7" stroke="black" points="2206.83,-228.8 2203.83,-232.8 2182.83,-232.8 2179.83,-228.8 2111.17,-228.8 2111.17,-192.8 2206.83,-192.8 2206.83,-228.8"/>
<text text-anchor="middle" x="2159" y="-206.6" font-family="Times,serif" font-size="14.00">ResultModule</text>
</g>
<!-- BooleInfoModule&#45;&gt;ResultModule -->
<g id="edge28" class="edge">
<title>BooleInfoModule&#45;&gt;ResultModule</title>
<path fill="none" stroke="black" d="M1895.35,-134.8C1912.67,-134.8 1927.12,-134.8 1927.12,-134.8 1927.12,-134.8 1927.12,-216.8 1927.12,-216.8 1927.12,-216.8 2101.24,-216.8 2101.24,-216.8"/>
<polygon fill="black" stroke="black" points="2101.24,-220.3 2111.24,-216.8 2101.24,-213.3 2101.24,-220.3"/>
</g>
<!-- CalculatorComponent -->
<g id="node15" class="node">
<title>CalculatorComponent</title>
<polygon fill="#ffffb3" stroke="black" points="3027.65,-84.8 2888.35,-84.8 2888.35,-48.8 3027.65,-48.8 3027.65,-84.8"/>
<text text-anchor="middle" x="2958" y="-62.6" font-family="Times,serif" font-size="14.00">CalculatorComponent</text>
</g>
<!-- CalculatorModule -->
<g id="node16" class="node">
<title>CalculatorModule</title>
<polygon fill="#8dd3c7" stroke="black" points="3016.86,-152.8 3013.86,-156.8 2992.86,-156.8 2989.86,-152.8 2899.14,-152.8 2899.14,-116.8 3016.86,-116.8 3016.86,-152.8"/>
<text text-anchor="middle" x="2958" y="-130.6" font-family="Times,serif" font-size="14.00">CalculatorModule</text>
</g>
<!-- CalculatorComponent&#45;&gt;CalculatorModule -->
<g id="edge12" class="edge">
<title>CalculatorComponent&#45;&gt;CalculatorModule</title>
<path fill="none" stroke="black" d="M2958,-85.02C2958,-85.02 2958,-106.53 2958,-106.53"/>
<polygon fill="black" stroke="black" points="2954.5,-106.53 2958,-116.53 2961.5,-106.53 2954.5,-106.53"/>
</g>
<!-- CalculatorComponent  -->
<g id="node17" class="node">
<title>CalculatorComponent </title>
<polygon fill="#fb8072" stroke="black" points="3028.65,-228.8 2885.35,-228.8 2885.35,-192.8 3028.65,-192.8 3028.65,-228.8"/>
<text text-anchor="middle" x="2957" y="-206.6" font-family="Times,serif" font-size="14.00">CalculatorComponent </text>
</g>
<!-- CalculatorModule&#45;&gt;CalculatorComponent  -->
<g id="edge13" class="edge">
<title>CalculatorModule&#45;&gt;CalculatorComponent </title>
<path fill="none" stroke="black" stroke-dasharray="5,2" d="M2958,-152.81C2958,-152.81 2958,-182.65 2958,-182.65"/>
<polygon fill="black" stroke="black" points="2954.5,-182.65 2958,-192.65 2961.5,-182.65 2954.5,-182.65"/>
</g>
<!-- HomeModule -->
<g id="node23" class="node">
<title>HomeModule</title>
<polygon fill="#8dd3c7" stroke="black" points="3184.76,-228.8 3181.76,-232.8 3160.76,-232.8 3157.76,-228.8 3091.24,-228.8 3091.24,-192.8 3184.76,-192.8 3184.76,-228.8"/>
<text text-anchor="middle" x="3138" y="-206.6" font-family="Times,serif" font-size="14.00">HomeModule</text>
</g>
<!-- CalculatorModule&#45;&gt;HomeModule -->
<g id="edge19" class="edge">
<title>CalculatorModule&#45;&gt;HomeModule</title>
<path fill="none" stroke="black" d="M3016.89,-134.8C3034.19,-134.8 3048.57,-134.8 3048.57,-134.8 3048.57,-134.8 3048.57,-210.8 3048.57,-210.8 3048.57,-210.8 3081.19,-210.8 3081.19,-210.8"/>
<polygon fill="black" stroke="black" points="3081.19,-214.3 3091.19,-210.8 3081.19,-207.3 3081.19,-214.3"/>
</g>
<!-- FooterComponent -->
<g id="node18" class="node">
<title>FooterComponent</title>
<polygon fill="#ffffb3" stroke="black" points="1028.88,-152.8 911.12,-152.8 911.12,-116.8 1028.88,-116.8 1028.88,-152.8"/>
<text text-anchor="middle" x="970" y="-130.6" font-family="Times,serif" font-size="14.00">FooterComponent</text>
</g>
<!-- FooterComponent&#45;&gt;FooterModule -->
<g id="edge14" class="edge">
<title>FooterComponent&#45;&gt;FooterModule</title>
<path fill="none" stroke="black" d="M970,-116.61C970,-108.52 970,-100.8 970,-100.8 970,-100.8 534.98,-100.8 534.98,-100.8 534.98,-100.8 534.98,-94.99 534.98,-94.99"/>
<polygon fill="black" stroke="black" points="538.48,-94.99 534.98,-84.99 531.48,-94.99 538.48,-94.99"/>
</g>
<!-- HeaderComponent -->
<g id="node20" class="node">
<title>HeaderComponent</title>
<polygon fill="#ffffb3" stroke="black" points="1340.74,-152.8 1219.26,-152.8 1219.26,-116.8 1340.74,-116.8 1340.74,-152.8"/>
<text text-anchor="middle" x="1280" y="-130.6" font-family="Times,serif" font-size="14.00">HeaderComponent</text>
</g>
<!-- HeaderComponent&#45;&gt;HeaderModule -->
<g id="edge16" class="edge">
<title>HeaderComponent&#45;&gt;HeaderModule</title>
<path fill="none" stroke="black" d="M1280,-116.51C1280,-94.59 1280,-60.8 1280,-60.8 1280,-60.8 735.02,-60.8 735.02,-60.8"/>
<polygon fill="black" stroke="black" points="735.02,-57.3 725.02,-60.8 735.02,-64.3 735.02,-57.3"/>
</g>
<!-- HomeComponent -->
<g id="node22" class="node">
<title>HomeComponent</title>
<polygon fill="#ffffb3" stroke="black" points="3346.55,-152.8 3231.45,-152.8 3231.45,-116.8 3346.55,-116.8 3346.55,-152.8"/>
<text text-anchor="middle" x="3289" y="-130.6" font-family="Times,serif" font-size="14.00">HomeComponent</text>
</g>
<!-- HomeComponent&#45;&gt;HomeModule -->
<g id="edge18" class="edge">
<title>HomeComponent&#45;&gt;HomeModule</title>
<path fill="none" stroke="black" d="M3289,-152.81C3289,-175.29 3289,-210.8 3289,-210.8 3289,-210.8 3194.95,-210.8 3194.95,-210.8"/>
<polygon fill="black" stroke="black" points="3194.95,-207.3 3184.95,-210.8 3194.95,-214.3 3194.95,-207.3"/>
</g>
<!-- HomeComponent  -->
<g id="node25" class="node">
<title>HomeComponent </title>
<polygon fill="#fb8072" stroke="black" points="3197.54,-296.8 3078.46,-296.8 3078.46,-260.8 3197.54,-260.8 3197.54,-296.8"/>
<text text-anchor="middle" x="3138" y="-274.6" font-family="Times,serif" font-size="14.00">HomeComponent </text>
</g>
<!-- HomeModule&#45;&gt;HomeComponent  -->
<g id="edge21" class="edge">
<title>HomeModule&#45;&gt;HomeComponent </title>
<path fill="none" stroke="black" stroke-dasharray="5,2" d="M3138,-229.02C3138,-229.02 3138,-250.53 3138,-250.53"/>
<polygon fill="black" stroke="black" points="3134.5,-250.53 3138,-260.53 3141.5,-250.53 3134.5,-250.53"/>
</g>
<!-- HomeRoutingModule -->
<g id="node24" class="node">
<title>HomeRoutingModule</title>
<polygon fill="#8dd3c7" stroke="black" points="3207.38,-152.8 3204.38,-156.8 3183.38,-156.8 3180.38,-152.8 3068.62,-152.8 3068.62,-116.8 3207.38,-116.8 3207.38,-152.8"/>
<text text-anchor="middle" x="3138" y="-130.6" font-family="Times,serif" font-size="14.00">HomeRoutingModule</text>
</g>
<!-- HomeRoutingModule&#45;&gt;HomeModule -->
<g id="edge20" class="edge">
<title>HomeRoutingModule&#45;&gt;HomeModule</title>
<path fill="none" stroke="black" d="M3138,-152.81C3138,-152.81 3138,-182.65 3138,-182.65"/>
<polygon fill="black" stroke="black" points="3134.5,-182.65 3138,-192.65 3141.5,-182.65 3134.5,-182.65"/>
</g>
<!-- PropositionDetailComponent -->
<g id="node26" class="node">
<title>PropositionDetailComponent</title>
<polygon fill="#ffffb3" stroke="black" points="3795.1,-84.8 3614.9,-84.8 3614.9,-48.8 3795.1,-48.8 3795.1,-84.8"/>
<text text-anchor="middle" x="3705" y="-62.6" font-family="Times,serif" font-size="14.00">PropositionDetailComponent</text>
</g>
<!-- PropositionDetailModule -->
<g id="node27" class="node">
<title>PropositionDetailModule</title>
<polygon fill="#8dd3c7" stroke="black" points="3675.32,-152.8 3672.32,-156.8 3651.32,-156.8 3648.32,-152.8 3516.68,-152.8 3516.68,-116.8 3675.32,-116.8 3675.32,-152.8"/>
<text text-anchor="middle" x="3596" y="-130.6" font-family="Times,serif" font-size="14.00">PropositionDetailModule</text>
</g>
<!-- PropositionDetailComponent&#45;&gt;PropositionDetailModule -->
<g id="edge22" class="edge">
<title>PropositionDetailComponent&#45;&gt;PropositionDetailModule</title>
<path fill="none" stroke="black" d="M3645.05,-85.02C3645.05,-85.02 3645.05,-106.53 3645.05,-106.53"/>
<polygon fill="black" stroke="black" points="3641.55,-106.53 3645.05,-116.53 3648.55,-106.53 3641.55,-106.53"/>
</g>
<!-- PropositionDetailComponent  -->
<g id="node29" class="node">
<title>PropositionDetailComponent </title>
<polygon fill="#fb8072" stroke="black" points="3687.6,-228.8 3504.4,-228.8 3504.4,-192.8 3687.6,-192.8 3687.6,-228.8"/>
<text text-anchor="middle" x="3596" y="-206.6" font-family="Times,serif" font-size="14.00">PropositionDetailComponent </text>
</g>
<!-- PropositionDetailModule&#45;&gt;PropositionDetailComponent  -->
<g id="edge24" class="edge">
<title>PropositionDetailModule&#45;&gt;PropositionDetailComponent </title>
<path fill="none" stroke="black" stroke-dasharray="5,2" d="M3596,-152.81C3596,-152.81 3596,-182.65 3596,-182.65"/>
<polygon fill="black" stroke="black" points="3592.5,-182.65 3596,-192.65 3599.5,-182.65 3592.5,-182.65"/>
</g>
<!-- PropositionDetailRoutingModule -->
<g id="node28" class="node">
<title>PropositionDetailRoutingModule</title>
<polygon fill="#8dd3c7" stroke="black" points="3590.94,-84.8 3587.94,-88.8 3566.94,-88.8 3563.94,-84.8 3387.06,-84.8 3387.06,-48.8 3590.94,-48.8 3590.94,-84.8"/>
<text text-anchor="middle" x="3489" y="-62.6" font-family="Times,serif" font-size="14.00">PropositionDetailRoutingModule</text>
</g>
<!-- PropositionDetailRoutingModule&#45;&gt;PropositionDetailModule -->
<g id="edge23" class="edge">
<title>PropositionDetailRoutingModule&#45;&gt;PropositionDetailModule</title>
<path fill="none" stroke="black" d="M3553.78,-85.02C3553.78,-85.02 3553.78,-106.53 3553.78,-106.53"/>
<polygon fill="black" stroke="black" points="3550.28,-106.53 3553.78,-116.53 3557.28,-106.53 3550.28,-106.53"/>
</g>
<!-- PropositionInfoComponent -->
<g id="node30" class="node">
<title>PropositionInfoComponent</title>
<polygon fill="#ffffb3" stroke="black" points="2842.71,-84.8 2673.29,-84.8 2673.29,-48.8 2842.71,-48.8 2842.71,-84.8"/>
<text text-anchor="middle" x="2758" y="-62.6" font-family="Times,serif" font-size="14.00">PropositionInfoComponent</text>
</g>
<!-- PropositionInfoModule -->
<g id="node31" class="node">
<title>PropositionInfoModule</title>
<polygon fill="#8dd3c7" stroke="black" points="2831.93,-152.8 2828.93,-156.8 2807.93,-156.8 2804.93,-152.8 2684.07,-152.8 2684.07,-116.8 2831.93,-116.8 2831.93,-152.8"/>
<text text-anchor="middle" x="2758" y="-130.6" font-family="Times,serif" font-size="14.00">PropositionInfoModule</text>
</g>
<!-- PropositionInfoComponent&#45;&gt;PropositionInfoModule -->
<g id="edge25" class="edge">
<title>PropositionInfoComponent&#45;&gt;PropositionInfoModule</title>
<path fill="none" stroke="black" d="M2758,-85.02C2758,-85.02 2758,-106.53 2758,-106.53"/>
<polygon fill="black" stroke="black" points="2754.5,-106.53 2758,-116.53 2761.5,-106.53 2754.5,-106.53"/>
</g>
<!-- PropositionInfoComponent  -->
<g id="node32" class="node">
<title>PropositionInfoComponent </title>
<polygon fill="#fb8072" stroke="black" points="2845.21,-228.8 2672.79,-228.8 2672.79,-192.8 2845.21,-192.8 2845.21,-228.8"/>
<text text-anchor="middle" x="2759" y="-206.6" font-family="Times,serif" font-size="14.00">PropositionInfoComponent </text>
</g>
<!-- PropositionInfoModule&#45;&gt;PropositionInfoComponent  -->
<g id="edge26" class="edge">
<title>PropositionInfoModule&#45;&gt;PropositionInfoComponent </title>
<path fill="none" stroke="black" stroke-dasharray="5,2" d="M2758,-152.81C2758,-152.81 2758,-182.65 2758,-182.65"/>
<polygon fill="black" stroke="black" points="2754.5,-182.65 2758,-192.65 2761.5,-182.65 2754.5,-182.65"/>
</g>
<!-- PropositionInfoModule&#45;&gt;ResultModule -->
<g id="edge29" class="edge">
<title>PropositionInfoModule&#45;&gt;ResultModule</title>
<path fill="none" stroke="black" d="M2683.83,-128.8C2568.35,-128.8 2358.68,-128.8 2358.68,-128.8 2358.68,-128.8 2358.68,-219.8 2358.68,-219.8 2358.68,-219.8 2216.83,-219.8 2216.83,-219.8"/>
<polygon fill="black" stroke="black" points="2216.83,-216.3 2206.83,-219.8 2216.83,-223.3 2216.83,-216.3"/>
</g>
<!-- ResultComponent -->
<g id="node33" class="node">
<title>ResultComponent</title>
<polygon fill="#ffffb3" stroke="black" points="2064.61,-152.8 1947.39,-152.8 1947.39,-116.8 2064.61,-116.8 2064.61,-152.8"/>
<text text-anchor="middle" x="2006" y="-130.6" font-family="Times,serif" font-size="14.00">ResultComponent</text>
</g>
<!-- ResultComponent&#45;&gt;ResultModule -->
<g id="edge27" class="edge">
<title>ResultComponent&#45;&gt;ResultModule</title>
<path fill="none" stroke="black" d="M2006,-152.83C2006,-173.57 2006,-204.8 2006,-204.8 2006,-204.8 2101.01,-204.8 2101.01,-204.8"/>
<polygon fill="black" stroke="black" points="2101.01,-208.3 2111.01,-204.8 2101.01,-201.3 2101.01,-208.3"/>
</g>
<!-- ResultComponent  -->
<g id="node37" class="node">
<title>ResultComponent </title>
<polygon fill="#fb8072" stroke="black" points="2219.11,-296.8 2098.89,-296.8 2098.89,-260.8 2219.11,-260.8 2219.11,-296.8"/>
<text text-anchor="middle" x="2159" y="-274.6" font-family="Times,serif" font-size="14.00">ResultComponent </text>
</g>
<!-- ResultModule&#45;&gt;ResultComponent  -->
<g id="edge32" class="edge">
<title>ResultModule&#45;&gt;ResultComponent </title>
<path fill="none" stroke="black" stroke-dasharray="5,2" d="M2159,-229.02C2159,-229.02 2159,-250.53 2159,-250.53"/>
<polygon fill="black" stroke="black" points="2155.5,-250.53 2159,-260.53 2162.5,-250.53 2155.5,-250.53"/>
</g>
<!-- ResultRoutingModule -->
<g id="node35" class="node">
<title>ResultRoutingModule</title>
<polygon fill="#8dd3c7" stroke="black" points="2229.45,-152.8 2226.45,-156.8 2205.45,-156.8 2202.45,-152.8 2088.55,-152.8 2088.55,-116.8 2229.45,-116.8 2229.45,-152.8"/>
<text text-anchor="middle" x="2159" y="-130.6" font-family="Times,serif" font-size="14.00">ResultRoutingModule</text>
</g>
<!-- ResultRoutingModule&#45;&gt;ResultModule -->
<g id="edge30" class="edge">
<title>ResultRoutingModule&#45;&gt;ResultModule</title>
<path fill="none" stroke="black" d="M2159,-152.81C2159,-152.81 2159,-182.65 2159,-182.65"/>
<polygon fill="black" stroke="black" points="2155.5,-182.65 2159,-192.65 2162.5,-182.65 2155.5,-182.65"/>
</g>
<!-- TableModule -->
<g id="node36" class="node">
<title>TableModule</title>
<polygon fill="#8dd3c7" stroke="black" points="2338.92,-152.8 2335.92,-156.8 2314.92,-156.8 2311.92,-152.8 2247.08,-152.8 2247.08,-116.8 2338.92,-116.8 2338.92,-152.8"/>
<text text-anchor="middle" x="2293" y="-130.6" font-family="Times,serif" font-size="14.00">TableModule</text>
</g>
<!-- TableModule&#45;&gt;ResultModule -->
<g id="edge31" class="edge">
<title>TableModule&#45;&gt;ResultModule</title>
<path fill="none" stroke="black" d="M2277.76,-152.81C2277.76,-175.29 2277.76,-210.8 2277.76,-210.8 2277.76,-210.8 2216.96,-210.8 2216.96,-210.8"/>
<polygon fill="black" stroke="black" points="2216.96,-207.3 2206.96,-210.8 2216.96,-214.3 2216.96,-207.3"/>
</g>
<!-- TableComponent  -->
<g id="node39" class="node">
<title>TableComponent </title>
<polygon fill="#fb8072" stroke="black" points="2495.21,-228.8 2378.79,-228.8 2378.79,-192.8 2495.21,-192.8 2495.21,-228.8"/>
<text text-anchor="middle" x="2437" y="-206.6" font-family="Times,serif" font-size="14.00">TableComponent </text>
</g>
<!-- TableModule&#45;&gt;TableComponent  -->
<g id="edge34" class="edge">
<title>TableModule&#45;&gt;TableComponent </title>
<path fill="none" stroke="black" stroke-dasharray="5,2" d="M2308.24,-153.11C2308.24,-172.95 2308.24,-201.8 2308.24,-201.8 2308.24,-201.8 2368.65,-201.8 2368.65,-201.8"/>
<polygon fill="black" stroke="black" points="2368.65,-205.3 2378.65,-201.8 2368.65,-198.3 2368.65,-205.3"/>
</g>
<!-- TableComponent -->
<g id="node38" class="node">
<title>TableComponent</title>
<polygon fill="#ffffb3" stroke="black" points="2632.7,-228.8 2519.3,-228.8 2519.3,-192.8 2632.7,-192.8 2632.7,-228.8"/>
<text text-anchor="middle" x="2576" y="-206.6" font-family="Times,serif" font-size="14.00">TableComponent</text>
</g>
<!-- TableComponent&#45;&gt;TableModule -->
<g id="edge33" class="edge">
<title>TableComponent&#45;&gt;TableModule</title>
<path fill="none" stroke="black" d="M2576,-192.77C2576,-172.03 2576,-140.8 2576,-140.8 2576,-140.8 2348.78,-140.8 2348.78,-140.8"/>
<polygon fill="black" stroke="black" points="2348.78,-137.3 2338.78,-140.8 2348.78,-144.3 2348.78,-137.3"/>
</g>
</g>
</svg>
